<svg width="26" height="26" viewBox="0 0 26 26" fill="none" xmlns="http://www.w3.org/2000/svg">
<path d="M13.0496 14.8477C11.8729 14.8477 10.8531 13.9063 10.8531 12.6512C10.8531 11.4745 11.7945 10.4546 13.0496 10.4546C14.2263 10.4546 15.2461 11.396 15.2461 12.6512C15.2461 13.8279 14.2263 14.8477 13.0496 14.8477Z" fill="#080808"/>
<path fill-rule="evenodd" clip-rule="evenodd" d="M15.7168 7.31676H10.3824C9.75482 7.3952 9.44104 7.47365 9.20569 7.5521C8.8919 7.63054 8.65656 7.78744 8.42122 8.02278C8.235 8.209 8.14701 8.39523 8.04066 8.62032C8.01263 8.67964 7.98325 8.74182 7.95054 8.80725C7.9384 8.84366 7.92439 8.88195 7.90937 8.92298C7.8273 9.14719 7.7152 9.45347 7.7152 9.98396V15.3184C7.79364 15.946 7.87209 16.2597 7.95054 16.4951C8.02898 16.8089 8.18588 17.0442 8.42122 17.2796C8.60745 17.4658 8.79367 17.5538 9.01876 17.6601C9.07813 17.6882 9.1402 17.7175 9.20569 17.7502C9.2421 17.7624 9.28038 17.7764 9.32142 17.7914C9.54563 17.8735 9.85191 17.9856 10.3824 17.9856H15.7168C16.3444 17.9071 16.6582 17.8287 16.8935 17.7502C17.2073 17.6718 17.4427 17.5149 17.678 17.2796C17.8642 17.0933 17.9522 16.9071 18.0586 16.682C18.0866 16.6227 18.1159 16.5606 18.1487 16.4951C18.1608 16.4587 18.1748 16.4204 18.1898 16.3794C18.2719 16.1551 18.384 15.8489 18.384 15.3184V9.98396C18.3056 9.35638 18.2271 9.0426 18.1487 8.80725C18.0702 8.49347 17.9133 8.25812 17.678 8.02278C17.4918 7.83656 17.3056 7.74857 17.0805 7.64222C17.0212 7.61421 16.9589 7.58479 16.8935 7.5521C16.8571 7.53996 16.8188 7.52595 16.7778 7.51093C16.5536 7.42886 16.2473 7.31676 15.7168 7.31676ZM13.0496 9.27794C11.1669 9.27794 9.67638 10.7684 9.67638 12.6512C9.67638 14.5339 11.1669 16.0244 13.0496 16.0244C14.9323 16.0244 16.4228 14.5339 16.4228 12.6512C16.4228 10.7684 14.9323 9.27794 13.0496 9.27794ZM17.2858 9.19949C17.2858 9.63274 16.9345 9.98396 16.5013 9.98396C16.068 9.98396 15.7168 9.63274 15.7168 9.19949C15.7168 8.76624 16.068 8.41502 16.5013 8.41502C16.9345 8.41502 17.2858 8.76624 17.2858 9.19949Z" fill="#080808"/>
<path fill-rule="evenodd" clip-rule="evenodd" d="M0.498047 4.02197C0.498047 1.85571 2.25415 0.0996094 4.42041 0.0996094H21.6788C23.8451 0.0996094 25.6012 1.85571 25.6012 4.02197V21.2804C25.6012 23.4466 23.8451 25.2027 21.6788 25.2027H4.42041C2.25415 25.2027 0.498047 23.4466 0.498047 21.2804V4.02197ZM10.3824 6.14005H15.7168C16.4228 6.21849 16.8935 6.29694 17.2858 6.45384C17.7564 6.68918 18.0702 6.84607 18.4625 7.23831C18.8547 7.63054 19.09 8.02278 19.2469 8.41502C19.4038 8.80725 19.5607 9.27794 19.5607 9.98396V15.3184C19.4823 16.0244 19.4038 16.4951 19.2469 16.8873C19.0116 17.358 18.8547 17.6718 18.4625 18.064C18.0702 18.4563 17.678 18.6916 17.2858 18.8485C16.8935 19.0054 16.4228 19.1623 15.7168 19.1623H10.3824C9.67638 19.0838 9.20569 19.0054 8.81346 18.8485C8.34277 18.6132 8.02898 18.4563 7.63675 18.064C7.24451 17.6718 7.00917 17.2796 6.85228 16.8873C6.69538 16.4951 6.53849 16.0244 6.53849 15.3184V9.98396C6.61693 9.27794 6.69538 8.80725 6.85228 8.41502C7.08762 7.94433 7.24451 7.63054 7.63675 7.23831C8.02898 6.84607 8.42122 6.61073 8.81346 6.45384C9.20569 6.29694 9.67638 6.14005 10.3824 6.14005Z" fill="#080808"/>
</svg>
