<svg width="26" height="26" viewBox="0 0 26 26" fill="none" xmlns="http://www.w3.org/2000/svg">
<path fill-rule="evenodd" clip-rule="evenodd" d="M0.800781 4.02197C0.800781 1.85571 2.55688 0.0996094 4.72314 0.0996094H21.9815C24.1478 0.0996094 25.9039 1.85571 25.9039 4.02197V21.2804C25.9039 23.4466 24.1478 25.2027 21.9815 25.2027H4.72314C2.55688 25.2027 0.800781 23.4466 0.800781 21.2804V4.02197ZM7.23345 10.5331V18.927H9.90067V10.5331H7.23345ZM7.07656 7.86589C7.07656 8.72881 7.70414 9.35639 8.56706 9.35639C9.42998 9.35639 10.0576 8.72881 10.0576 7.86589C10.0576 7.00297 9.42998 6.37539 8.56706 6.37539C7.78259 6.37539 7.07656 7.00297 7.07656 7.86589ZM16.9609 18.927H19.4712V13.7494C19.4712 11.1607 17.9023 10.2978 16.4118 10.2978C15.0782 10.2978 14.1368 11.1607 13.9015 11.7098V10.5331H11.3912V18.927H14.0584V14.4555C14.0584 13.2788 14.8428 12.6512 15.6273 12.6512C16.4118 12.6512 16.9609 13.0434 16.9609 14.377V18.927Z" fill="#080808"/>
</svg>
