<svg width="25" height="25" viewBox="0 0 25 25" fill="none" xmlns="http://www.w3.org/2000/svg">
<path fill-rule="evenodd" clip-rule="evenodd" d="M3.90209 0.65625C3.06144 0.65625 2.25522 0.992526 1.6608 1.5911C1.06637 2.18968 0.732422 3.00152 0.732422 3.84803C0.732422 4.69455 1.06637 5.50639 1.6608 6.10497C2.25522 6.70354 3.06144 7.03982 3.90209 7.03982C4.74274 7.03982 5.54896 6.70354 6.14339 6.10497C6.73781 5.50639 7.07176 4.69455 7.07176 3.84803C7.07176 3.00152 6.73781 2.18968 6.14339 1.5911C5.54896 0.992526 4.74274 0.65625 3.90209 0.65625ZM2.46133 3.84803C2.46133 3.46325 2.61313 3.09423 2.88332 2.82216C3.15352 2.55008 3.51998 2.39722 3.90209 2.39722C4.2842 2.39722 4.65067 2.55008 4.92086 2.82216C5.19106 3.09423 5.34285 3.46325 5.34285 3.84803C5.34285 4.23281 5.19106 4.60183 4.92086 4.87391C4.65067 5.14599 4.2842 5.29884 3.90209 5.29884C3.51998 5.29884 3.15352 5.14599 2.88332 4.87391C2.61313 4.60183 2.46133 4.23281 2.46133 3.84803ZM0.732422 8.49063C0.732422 8.25976 0.823498 8.03835 0.985615 7.8751C1.14773 7.71185 1.36761 7.62014 1.59688 7.62014H6.2073C6.43657 7.62014 6.65645 7.71185 6.81857 7.8751C6.98068 8.03835 7.07176 8.25976 7.07176 8.49063V23.5791C7.07176 23.8099 6.98068 24.0313 6.81857 24.1946C6.65645 24.3578 6.43657 24.4495 6.2073 24.4495H1.59688C1.36761 24.4495 1.14773 24.3578 0.985615 24.1946C0.823498 24.0313 0.732422 23.8099 0.732422 23.5791V8.49063ZM2.46133 9.36111V22.7086H5.34285V9.36111H2.46133ZM8.80067 8.49063C8.80067 8.25976 8.89175 8.03835 9.05386 7.8751C9.21598 7.71185 9.43586 7.62014 9.66512 7.62014H14.2756C14.5048 7.62014 14.7247 7.71185 14.8868 7.8751C15.0489 8.03835 15.14 8.25976 15.14 8.49063V8.99435L15.6414 8.77731C16.5059 8.40529 17.423 8.17226 18.3592 8.08672C21.5577 7.79424 24.3609 10.3245 24.3609 13.5743V23.5791C24.3609 23.8099 24.2698 24.0313 24.1077 24.1946C23.9456 24.3578 23.7257 24.4495 23.4964 24.4495H18.886C18.6567 24.4495 18.4368 24.3578 18.2747 24.1946C18.1126 24.0313 18.0215 23.8099 18.0215 23.5791V15.4545C18.0215 15.0697 17.8697 14.7007 17.5995 14.4286C17.3293 14.1566 16.9629 14.0037 16.5808 14.0037C16.1987 14.0037 15.8322 14.1566 15.562 14.4286C15.2918 14.7007 15.14 15.0697 15.14 15.4545V23.5791C15.14 23.8099 15.0489 24.0313 14.8868 24.1946C14.7247 24.3578 14.5048 24.4495 14.2756 24.4495H9.66512C9.43586 24.4495 9.21598 24.3578 9.05386 24.1946C8.89175 24.0313 8.80067 23.8099 8.80067 23.5791V8.49063ZM10.5296 9.36111V22.7086H13.4111V15.4545C13.4111 14.608 13.745 13.7962 14.3395 13.1976C14.9339 12.599 15.7401 12.2627 16.5808 12.2627C17.4214 12.2627 18.2276 12.599 18.8221 13.1976C19.4165 13.7962 19.7504 14.608 19.7504 15.4545V22.7086H22.632V13.5743C22.632 11.3644 20.7175 9.61878 18.5171 9.82073C17.7612 9.88998 17.0208 10.078 16.3226 10.3778L14.6167 11.1149C14.4851 11.1718 14.3416 11.1949 14.199 11.1821C14.0563 11.1693 13.9191 11.1211 13.7995 11.0417C13.68 10.9623 13.5819 10.8542 13.5141 10.7272C13.4463 10.6002 13.4109 10.4582 13.4111 10.314V9.36111H10.5296Z" fill="black"/>
</svg>
