<svg width="97" height="55" viewBox="0 0 97 55" fill="none" xmlns="http://www.w3.org/2000/svg">
<path d="M0.953981 4.28858L19.5166 25.6052C20.3362 26.5636 20.4489 27.8567 19.8034 28.9147L4.00703 52.1142C2.32667 54.8811 5.93528 55.8274 8.96812 54.2088L52.3143 29.9274C54.6401 28.6886 54.5377 25.6865 52.1401 24.5653L4.00688 0.447802C0.707644 -1.09845 -1.28991 1.6482 0.953981 4.28858Z" fill="#F7F7F7"/>
<path d="M43.954 4.28858L62.5166 25.6052C63.3362 26.5636 63.4489 27.8567 62.8034 28.9147L47.007 52.1142C45.3267 54.8811 48.9353 55.8274 51.9681 54.2088L95.3143 29.9274C97.6401 28.6886 97.5377 25.6865 95.1401 24.5653L47.0069 0.447802C43.7076 -1.09845 41.7101 1.6482 43.954 4.28858Z" fill="#F7F7F7"/>
</svg>
