<svg width="26" height="26" viewBox="0 0 26 26" fill="none" xmlns="http://www.w3.org/2000/svg">
<path fill-rule="evenodd" clip-rule="evenodd" d="M4.02686 0.0996094H21.2853C23.4515 0.0996094 25.2076 1.85571 25.2076 4.02197V21.2804C25.2076 23.4466 23.4515 25.2027 21.2853 25.2027H4.02686C1.86059 25.2027 0.104492 23.4466 0.104492 21.2804V4.02197C0.104492 1.85571 1.86059 0.0996094 4.02686 0.0996094ZM13.1988 9.51907C12.0746 9.98664 9.82793 10.9544 6.45866 12.4223C5.91154 12.6399 5.62493 12.8528 5.59884 13.0609C5.55475 13.4126 5.99521 13.5511 6.59501 13.7397C6.6766 13.7654 6.76114 13.792 6.8478 13.8201C7.43792 14.0119 8.23172 14.2364 8.64439 14.2453C9.01871 14.2534 9.43651 14.099 9.89776 13.7823C13.0458 11.6573 14.6708 10.5832 14.7728 10.5601C14.8448 10.5437 14.9445 10.5232 15.0121 10.5833C15.0797 10.6433 15.0731 10.7571 15.0659 10.7876C15.0223 10.9736 13.2933 12.581 12.3985 13.4129C12.1196 13.6722 11.9217 13.8562 11.8813 13.8982C11.7907 13.9923 11.6983 14.0813 11.6096 14.1668C11.0613 14.6953 10.6502 15.0917 11.6323 15.7389C12.1043 16.0499 12.482 16.3071 12.8587 16.5636C13.2702 16.8439 13.6806 17.1233 14.2116 17.4714C14.3469 17.5601 14.4761 17.6522 14.6019 17.7419C15.0808 18.0833 15.511 18.39 16.0425 18.3411C16.3513 18.3127 16.6703 18.0223 16.8324 17.1562C17.2152 15.1093 17.9678 10.6744 18.1418 8.84684C18.157 8.68673 18.1379 8.48181 18.1225 8.39186C18.1071 8.30191 18.0749 8.17374 17.958 8.07886C17.8195 7.9665 17.6057 7.94281 17.5101 7.94441C17.0754 7.95215 16.4085 8.18406 13.1988 9.51907Z" fill="#080808"/>
</svg>
