<svg width="26" height="23" viewBox="0 0 26 23" fill="none" xmlns="http://www.w3.org/2000/svg">
<path d="M24.8468 1.05841C24.7129 0.941946 24.5499 0.864491 24.3755 0.834388C24.2011 0.804285 24.0218 0.822674 23.857 0.887575L1.95821 9.51736C1.64785 9.63888 1.3851 9.85864 1.20951 10.1436C1.03391 10.4285 0.954988 10.7631 0.984608 11.0971C1.01423 11.4311 1.15079 11.7463 1.37374 11.9954C1.59669 12.2445 1.89396 12.4139 2.22078 12.4781L7.89485 13.5999V19.9708C7.89373 20.3178 7.99614 20.6572 8.18881 20.9449C8.38148 21.2326 8.65552 21.4554 8.97542 21.5845C9.29483 21.7158 9.64609 21.7473 9.98353 21.675C10.321 21.6026 10.629 21.4296 10.8675 21.1786L13.6035 18.3212L17.9441 22.147C18.2573 22.4267 18.6612 22.5815 19.0798 22.5823C19.2633 22.5821 19.4456 22.5531 19.6201 22.4963C19.9053 22.4052 20.1618 22.2404 20.3641 22.0184C20.5664 21.7963 20.7074 21.5248 20.7731 21.2308L25.1591 2.01703C25.1983 1.84375 25.19 1.66298 25.135 1.49411C25.08 1.32523 24.9804 1.17462 24.8468 1.05841ZM18.2402 4.9756L8.5594 11.9569L3.19978 10.8982L18.2402 4.9756ZM9.62376 19.9708V14.8045L12.3025 17.17L9.62376 19.9708ZM19.082 20.8413L10.1478 12.9525L23.0066 3.67204L19.082 20.8413Z" fill="black"/>
</svg>
