<svg width="205" height="103" viewBox="0 0 205 103" fill="none" xmlns="http://www.w3.org/2000/svg">
<g clip-path="url(#clip0_3159_1860)">
<path fill-rule="evenodd" clip-rule="evenodd" d="M120.058 56.6429C120.058 58.2663 119.722 59.6993 119.056 60.942C118.384 62.1881 117.486 63.2126 116.351 64.0157C115.01 64.9849 113.569 65.6668 112.043 66.0752C110.513 66.4767 108.532 66.6775 106.108 66.6775H95.8936V34.002H105.339C107.878 34.002 109.777 34.0781 111.045 34.2304C112.312 34.3827 113.532 34.7427 114.696 35.3173C115.971 35.9438 116.906 36.7676 117.49 37.7818C118.081 38.796 118.376 39.9936 118.376 41.3609C118.376 42.9012 117.933 44.2754 117.046 45.4834C116.163 46.6983 114.936 47.6502 113.373 48.3321V48.5086C115.494 49.0382 117.138 50.0005 118.303 51.3989C119.47 52.7973 120.05 54.5384 120.05 56.636L120.058 56.6429ZM113.447 41.9839C113.447 41.1878 113.303 40.5094 113.011 39.9244C112.73 39.3533 112.264 38.8929 111.629 38.5571C110.86 38.1625 110.006 37.9202 109.064 37.8303C108.125 37.7472 106.825 37.7022 105.165 37.7022H100.616V47.2695H106.004C107.486 47.2695 108.584 47.2002 109.282 47.0583C109.984 46.9164 110.708 46.6326 111.459 46.193C112.179 45.7741 112.689 45.2134 112.992 44.528C113.295 43.8392 113.447 42.9877 113.447 41.9839ZM115.132 56.8194C115.132 55.5872 114.936 54.573 114.552 53.77C114.167 52.9738 113.395 52.2954 112.235 51.7416C111.481 51.3712 110.664 51.1393 109.781 51.0355C108.894 50.9351 107.638 50.8832 106.008 50.8832H100.616V62.9807H104.478C106.551 62.9807 108.188 62.8907 109.386 62.7142C110.583 62.5377 111.64 62.1673 112.545 61.5927C113.439 61.0216 114.09 60.3708 114.507 59.6474C114.925 58.9205 115.136 57.979 115.136 56.8229L115.132 56.8194Z" fill="#F7F7F7"/>
<path fill-rule="evenodd" clip-rule="evenodd" d="M124.78 66.6775V34.002H147.093V37.8649H129.507V46.8195H145.896V50.6893H129.507V62.8111H147.093V66.6775H124.78Z" fill="#F7F7F7"/>
<path fill-rule="evenodd" clip-rule="evenodd" d="M162.199 67.2551C159.612 67.2551 157.421 67.0059 155.61 66.5247C153.799 66.0367 152.1 65.4275 150.507 64.7144V59.2766H150.843C152.403 60.6196 154.169 61.658 156.15 62.3953C158.123 63.1326 160.034 63.4995 161.867 63.4995C164.476 63.4995 166.453 63.0045 167.794 62.0007C169.132 60.9969 169.801 59.6747 169.801 58.0409C169.801 56.7359 169.446 55.6802 168.747 54.8599C168.049 54.0395 166.933 53.4338 165.399 53.0357C164.302 52.7449 163.297 52.5061 162.388 52.3157C161.479 52.1254 160.337 51.8692 158.966 51.5508C157.739 51.2566 156.634 50.8827 155.662 50.4293C154.694 49.9758 153.833 49.3839 153.079 48.6536C152.343 47.9336 151.774 47.096 151.368 46.1164C150.958 45.1507 150.758 44.0292 150.758 42.7554C150.758 40.1074 151.882 37.8887 154.136 36.0957C156.379 34.3096 159.25 33.4131 162.739 33.4131C164.734 33.4131 166.615 33.5965 168.396 33.9634C170.17 34.3304 171.818 34.8496 173.33 35.5211V40.7305H172.971C171.844 39.7751 170.392 38.9478 168.622 38.2348C166.852 37.5252 164.993 37.1722 163.053 37.1722C160.854 37.1722 159.08 37.6429 157.72 38.5809C156.364 39.5259 155.692 40.7651 155.692 42.2985C155.692 43.683 156.091 44.7872 156.885 45.6076C157.683 46.4279 158.84 47.0302 160.351 47.4075C161.36 47.6532 162.583 47.9371 164.036 48.2521C165.488 48.5636 166.689 48.8578 167.65 49.1209C170.104 49.8097 171.9 50.8481 173.027 52.2361C174.161 53.6276 174.727 55.3375 174.727 57.3694C174.727 58.6362 174.442 59.8996 173.88 61.1388C173.311 62.3849 172.517 63.4406 171.497 64.3025C170.351 65.2509 169.054 65.9848 167.613 66.497C166.172 67.0093 164.365 67.262 162.199 67.262V67.2551Z" fill="#F7F7F7"/>
<path fill-rule="evenodd" clip-rule="evenodd" d="M187.898 66.6775V37.8649H175.929V34.002H204.598V37.8649H192.628V66.6775H187.898Z" fill="#F7F7F7"/>
<path d="M185.529 79.8495H180.312V71.0645H181.509V78.811H185.529V79.8495ZM192.994 71.0645L189.897 79.8495H188.608L185.511 71.0645H186.793L189.284 78.3438L191.771 71.0645H192.998H192.994ZM197 79.8495H193.504V78.953H194.653V71.961H193.504V71.0645H197V71.961H195.851V78.953H197V79.8495ZM204.997 71.0645L201.9 79.8495H200.607L197.514 71.0645H198.796L201.287 78.3438L203.774 71.0645H204.993H204.997Z" fill="#F7F7F7"/>
<path fill-rule="evenodd" clip-rule="evenodd" d="M78.114 66.7199L70.2686 62.3066H49.7776L41.9248 66.7199C49.4339 79.4509 71.8872 100.292 96.2068 102.095C87.7332 97.464 74.2449 80.8182 78.1177 66.7199H78.114Z" fill="#F7F7F7"/>
<path fill-rule="evenodd" clip-rule="evenodd" d="M83.6532 0.992188C83.7825 10.4729 75.7561 30.1856 61.307 33.9689V42.8127L71.5581 60.1266L79.3998 64.5502C86.9458 51.8365 94.2184 22.4493 83.6532 0.995649V0.992188Z" fill="#F7F7F7"/>
<path fill-rule="evenodd" clip-rule="evenodd" d="M58.7356 33.9629C43.6879 33.9456 13.9582 42.4918 0.200195 62.1421C8.55184 57.2996 30.0629 54.219 40.6428 64.5443L48.4845 60.1206L58.7319 42.8068L58.7393 33.9629H58.7356Z" fill="#F7F7F7"/>
<path fill-rule="evenodd" clip-rule="evenodd" d="M55.2139 55.0738C55.2139 52.4916 57.3646 50.3975 60.0179 50.3975C62.6712 50.3975 64.822 52.4916 64.822 55.0738C64.822 57.656 62.6712 59.764 60.0179 59.764C57.3646 59.764 55.2139 57.6698 55.2139 55.0738Z" fill="#F7F7F7"/>
</g>
<defs>
<clipPath id="clip0_3159_1860">
<rect width="204.8" height="101.104" fill="white" transform="translate(0.200195 0.988281)"/>
</clipPath>
</defs>
</svg>
