<svg width="1640" height="621" viewBox="0 0 1640 621" fill="none" xmlns="http://www.w3.org/2000/svg">
<path d="M351.71 442.73C354.66 428.01 356.94 413.9 360.37 400.08C365.86 377.98 377.4 358.69 389.78 339.82C399.19 325.49 408.96 311.09 413.74 294.48C428.3 243.91 411.62 190.86 355.49 163.18C310.76 141.12 254.83 151.29 222.71 185.2C204.7 204.21 194.11 226.76 191.45 252.82C188.1 285.57 198.02 314.67 217.35 340.68C234.36 363.57 238.63 370.5 245.86 390.23C249.62 400.5 251.58 409.33 252.64 415.22C266 415.45 279.37 415.68 292.73 415.92V305.09H316.17C316.25 349.39 316.33 393.68 316.41 437.98L233.66 437.94C232.69 430.39 230.8 419.66 226.79 407.26C220.83 388.81 213.67 375.25 206.65 364.85C198.96 353.46 190.21 342.64 183.73 330.61C173.04 310.76 167.27 289.11 167.19 266.46C166.95 201.34 210.81 142.16 280.51 129.86C345.4 118.41 407.22 156.72 429.79 204.12C437.05 219.36 440.16 235.51 441.63 252.23C444.4 283.67 435.14 311.67 418.65 337.84C412.17 348.12 405.66 358.39 399.29 368.74C378.93 401.86 377.5 432.64 376.42 443.37C375.47 452.77 375.39 460.56 375.47 465.75H256.93C256.93 467.36 256.93 468.98 256.93 470.59C296.53 470.59 336.13 470.59 375.74 470.59V519.84C336.08 519.83 296.43 519.81 256.77 519.8C256.79 521.36 256.81 522.93 256.84 524.49C284.3 524.55 311.77 524.6 339.23 524.66C339.34 556.12 339.45 587.57 339.56 619.03C246.32 619.13 153.09 619.23 59.8498 619.33C59.2698 567.88 58.6898 516.43 58.0998 464.98C38.9898 457.92 19.8698 450.86 0.759766 443.8C22.4698 381.48 34.8398 330.06 42.1798 294.13C48.6898 262.26 49.6498 256.74 54.9698 231.12C64.9598 183.01 82.0098 137.86 111.81 98.2501C149.87 47.6601 200.34 17.1101 262.49 5.58006C288.78 0.700056 315.25 -1.23994 341.92 0.810056C398.63 5.17006 448.8 25.8301 492.24 62.4501C532.33 96.2501 560.6 138.14 575.88 188.42C590.32 235.93 592.27 283.94 580 332.24C567.19 382.67 542.73 426.88 507.04 464.58C483.13 489.83 468 519.42 459.52 552.74C454.03 574.27 451.71 596.25 451.39 619.31C444.28 619.25 437.16 619.18 430.05 619.12C428.95 597.81 430.76 580.07 432.82 567.28C439.96 523.02 457.49 493.07 461.84 485.55C469.04 473.11 477.63 461.76 487.53 451.26C527.52 408.85 553.79 359.47 562.13 301.32C578.79 185.25 508.01 71.2401 396.63 35.1501C363.14 24.3001 328.66 21.3801 293.55 24.8701C263.83 27.8301 235.11 34.3101 208.21 47.5301C158.99 71.7201 125.33 110.64 102.4 159.76C85.0998 196.83 80.5998 224.13 72.8598 261.97C64.5898 302.46 51.2698 359.64 29.5198 429.21C46.8498 435.56 64.1898 441.92 81.5198 448.27C81.8398 497.39 82.1698 546.51 82.4898 595.62H315.53V548.25L233.06 548.15C233.13 531.31 233.21 514.46 233.28 497.62C272.99 497.58 312.69 497.53 352.4 497.49C352.4 495.9 352.4 494.32 352.4 492.73C312.74 492.73 273.08 492.72 233.42 492.71V442.63C234.87 442.63 237.65 442.62 239.1 442.61C278.43 442.5 297.99 442.71 346.11 442.72C348.1 442.72 350.08 442.72 351.7 442.72L351.71 442.73Z" fill="white"/>
<path d="M842 74.0101C853.61 80.8801 859.42 91.2301 859.42 105.1C859.42 117.38 855.19 127.21 846.75 134.6C838.3 141.99 827.011 145.69 812.891 145.69H754.48V7.08008H809.13C822.99 7.08008 834.081 10.6101 842.391 17.6701C850.711 24.7301 854.86 34.3401 854.86 46.4801C854.86 58.6201 850.57 67.2701 841.99 74.0001L842 74.0101ZM808.141 38.7601H789.92V60.5401H808.141C811.311 60.5401 813.98 59.5801 816.16 57.6701C818.34 55.7601 819.43 53.0901 819.43 49.6501C819.43 46.2101 818.37 43.7101 816.26 41.7301C814.15 39.7501 811.441 38.7601 808.141 38.7601ZM811.901 114C815.461 114 818.37 112.91 820.61 110.73C822.85 108.55 823.98 105.75 823.98 102.31C823.98 98.8701 822.86 95.9101 820.61 93.8001C818.36 91.6901 815.461 90.6301 811.901 90.6301H789.92V114H811.901Z" fill="white"/>
<path d="M909.12 112.42H962.78V145.68H873.68V7.08008H961.79V40.1401H909.12V59.3501H956.84V92.0201H909.12V112.41V112.42Z" fill="white"/>
<path d="M1028.9 148.65C1014.25 148.65 1002.1 145.55 992.47 139.35C982.83 133.15 976.101 124.77 972.271 114.2L1002.56 96.5801C1007.71 108.86 1016.82 114.99 1029.88 114.99C1040.7 114.99 1046.12 111.92 1046.12 105.77C1046.12 101.71 1043 98.4401 1036.76 95.9601C1034.13 94.8701 1028.34 93.0301 1019.39 90.4501C1006.72 86.7601 996.681 81.5701 989.291 74.9101C981.901 68.2501 978.2 58.9701 978.2 47.0901C978.2 34.2901 982.78 23.9201 991.96 16.0001C1001.13 8.08012 1012.58 4.12012 1026.31 4.12012C1037.92 4.12012 1048.22 6.83012 1057.2 12.2401C1066.17 17.6501 1073.04 25.5101 1077.79 35.8001L1048.09 53.2201C1043.73 42.9301 1036.54 37.7801 1026.51 37.7801C1022.28 37.7801 1019.09 38.6401 1016.91 40.3701C1014.73 42.1001 1013.64 44.2801 1013.64 46.9401C1013.64 49.9901 1015.25 52.5801 1018.48 54.7101C1021.71 56.8401 1028 59.2901 1037.35 62.0801C1043.94 64.4601 1049.32 66.3901 1053.49 67.8901C1057.66 69.3901 1062.19 71.7601 1067.08 74.9801C1071.97 78.2101 1075.6 82.3601 1077.98 87.4301C1080.36 92.5001 1081.55 98.4601 1081.55 105.31C1081.55 118.91 1076.73 129.53 1067.1 137.19C1057.46 144.85 1044.73 148.67 1028.89 148.67L1028.9 148.65Z" fill="white"/>
<path d="M1186.51 7.08008V41.3301H1152.26V145.68H1116.82V41.3401H1082.57V7.08008H1186.52H1186.51Z" fill="white"/>
<path d="M849.52 244.68V278.93H815.27V383.28H779.83V278.93H745.58V244.68H849.53H849.52Z" fill="white"/>
<path d="M934.66 383.28L910.5 338.53H897.83V383.28H862.39V244.68H917.83C931.95 244.68 943.8 249.2 953.37 258.24C962.94 267.28 967.72 278.73 967.72 292.59C967.72 300.9 965.61 308.53 961.38 315.46C957.15 322.39 951.41 327.9 944.15 331.99L972.66 383.27H934.64L934.66 383.28ZM897.83 277.35V308.44H917.43C921.79 308.57 925.35 307.19 928.12 304.28C930.89 301.38 932.28 297.62 932.28 292.99C932.28 288.36 930.89 284.61 928.12 281.7C925.35 278.8 921.78 277.34 917.43 277.34H897.83V277.35Z" fill="white"/>
<path d="M1073.2 383.28L1066.56 363.28H1019.39L1013.41 383.28H975.05L1019.22 244.68H1063.84L1109.69 383.28H1073.2ZM1028.51 332.79H1056.43L1042.37 285.67L1028.51 332.79Z" fill="white"/>
<path d="M1119.78 244.68H1155.22V383.28H1119.78V244.68Z" fill="white"/>
<path d="M1253.43 244.68H1288.67V383.28H1261.35L1212.44 313.58V383.28H1177V244.68H1204.52L1253.43 314.38V244.68Z" fill="white"/>
<path d="M1310.65 244.68H1346.09V383.28H1310.65V244.68Z" fill="white"/>
<path d="M1444.3 244.68H1479.54V383.28H1452.22L1403.31 313.58V383.28H1367.87V244.68H1395.39L1444.3 314.38V244.68Z" fill="white"/>
<path d="M1639.13 303.88V317.94C1639.13 338.27 1632.76 354.74 1620.02 367.34C1607.28 379.95 1590.75 386.25 1570.42 386.25C1548.77 386.25 1530.98 379.32 1517.06 365.46C1503.13 351.6 1496.17 334.51 1496.17 314.18C1496.17 293.85 1503.1 276.69 1516.96 262.7C1530.82 248.71 1547.98 241.71 1568.44 241.71C1581.37 241.71 1593.22 244.61 1603.98 250.42C1614.74 256.23 1623.15 263.95 1629.23 273.59L1599.13 290.82C1596.36 286.46 1592.3 282.97 1586.95 280.33C1581.6 277.69 1575.57 276.37 1568.83 276.37C1557.87 276.37 1548.9 279.93 1541.9 287.06C1534.9 294.19 1531.41 303.3 1531.41 314.38C1531.41 325.46 1534.87 334.11 1541.81 341.5C1548.74 348.89 1558.47 352.59 1571.02 352.59C1587.12 352.59 1597.75 346.52 1602.9 334.38H1569.24V303.89H1639.13V303.88Z" fill="white"/>
<path d="M783.39 620.88L744.58 482.28H782.79L804.17 569.6L828.92 482.28H856.84L881.59 569.6L903.17 482.28H941.19L902.58 620.88H865.16L842.98 542.67L820.8 620.88H783.38H783.39Z" fill="white"/>
<path d="M988.71 587.62H1042.37V620.88H953.271V482.28H1041.38V515.35H988.71V534.56H1036.43V567.23H988.71V587.62Z" fill="white"/>
<path d="M1094.64 587.62H1148.3V620.88H1059.2V482.28H1147.31V515.35H1094.64V534.56H1142.36V567.23H1094.64V587.62Z" fill="white"/>
<path d="M1279.97 620.88H1240.37L1200.57 558.76V620.88H1165.13V482.28H1200.57V540.57L1238.39 482.28H1277.99L1234.04 549.6L1279.97 620.88Z" fill="white"/>
</svg>
