<svg width="723" height="234" viewBox="0 0 723 234" fill="none" xmlns="http://www.w3.org/2000/svg">
<g clip-path="url(#clip0_763_178)">
<path d="M218.484 125.317C213.652 144.338 204.426 161.014 190.968 175.234C188.554 177.783 186.378 180.45 184.424 183.226C177.216 193.474 174.497 203.078 173.041 208.486C171.453 214.378 169.793 222.959 169.974 233.494C167.292 233.505 164.607 233.517 161.925 233.524C161.51 225.483 162.193 218.795 162.97 213.967C165.663 197.276 172.275 185.976 173.916 183.14C176.632 178.444 179.875 174.166 183.606 170.206C198.689 154.209 208.598 135.584 211.744 113.65C218.028 69.8702 191.331 26.8671 149.319 13.2581C136.687 9.16565 123.682 8.06427 110.439 9.38065C99.229 10.4971 88.3961 12.9413 78.2536 17.9277C59.6884 27.0519 46.9923 41.732 38.3434 60.2594C31.8181 74.2455 30.1169 84.5428 27.2013 98.8118C24.0819 114.084 19.0578 135.652 10.854 161.893C17.3944 164.288 23.9311 166.687 30.4677 169.082C30.5922 187.609 30.7129 206.137 30.8336 224.664H118.733V206.793C108.364 206.782 97.9955 206.77 87.6267 206.755C87.6531 200.577 87.6832 194.395 87.7096 188.213C102.688 188.235 117.666 188.258 132.644 188.277V185.855C117.688 185.851 102.725 185.848 87.7662 185.848V167.588C102.986 167.565 118.205 167.543 133.421 167.52C133.285 161.41 134.058 154.673 136.578 147.782C136.88 146.963 137.129 146.315 137.378 145.73C138.751 142.479 140.689 139.295 146.739 128.176C151.334 119.738 153.642 115.525 153.932 114.74C155.294 111.101 160.982 95.8735 153.668 80.5785C147.758 68.2143 136.714 62.9827 133.806 61.5494C116.938 53.2287 95.838 57.0647 83.7228 69.8551C76.9296 77.0254 72.9352 85.531 71.9281 95.3567C70.6646 107.71 74.41 118.686 81.6973 128.496C88.1132 137.13 89.7238 139.744 92.4509 147.186C93.8729 151.056 94.6084 154.39 95.0082 156.612C100.021 156.718 105.06 156.808 110.133 156.876C113.113 156.914 116.089 156.948 119.05 156.974C119.024 143.007 118.997 129.04 118.975 115.072H110.133C110.152 126.833 110.171 138.594 110.194 150.354C107.501 150.343 104.804 150.332 102.111 150.324C101.639 147.729 101.073 145.591 100.606 144.018C99.3497 139.786 97.7579 136.474 96.5811 134.271C94.4915 130.348 92.1793 127.18 90.0822 124.717C90.0822 124.717 87.7775 121.345 85.4767 116.423C84.4508 114.227 81.3993 107.706 81.0146 100.566C80.5129 91.2869 84.4772 80.3032 93.2845 73.1668C101.021 66.8979 109.443 66.053 112.295 65.8908C125.655 65.144 139.331 72.5897 145.174 84.5616C148.033 90.4193 148.222 96.0394 148.278 98.1404C148.478 105.556 146.128 111.349 143.88 116.958C142.975 119.214 141.195 122.839 137.63 130.088C134.745 135.957 134.549 136.123 133.459 138.613C131.991 141.966 130.011 146.549 128.608 152.689C127.91 155.741 127.179 159.965 126.994 165.102C113.943 165.129 100.896 165.155 87.8454 165.182C87.4796 162.334 86.7705 158.287 85.2579 153.61C83.0099 146.65 80.3092 141.536 77.6614 137.613C74.7608 133.317 71.4642 129.239 69.0163 124.698C64.9841 117.211 62.8077 109.045 62.7776 100.502C62.687 75.9391 79.2305 53.6172 105.52 48.974C129.996 44.6552 153.314 59.109 161.827 76.9839C164.565 82.7323 165.738 88.8238 166.293 95.1304C167.341 106.989 163.845 117.55 157.625 127.421C155.181 131.299 152.725 135.173 150.323 139.08C142.643 151.569 142.104 163.179 141.696 167.23C141.342 170.772 141.308 173.714 141.338 175.671H96.6264C96.6037 176.554 96.5811 177.436 96.5622 178.319C111.518 178.255 126.477 178.191 141.436 178.127V196.081C126.477 196.073 111.518 196.069 96.5622 196.062C96.5396 196.767 96.517 197.469 96.4943 198.17C106.886 198.28 117.277 198.385 127.665 198.495C127.707 210.161 127.748 221.828 127.79 233.494C92.6206 233.532 57.4555 233.569 22.2865 233.607C22.2714 232.144 21.9735 205.971 21.9584 204.496C21.9433 203.032 21.6453 176.859 21.6264 175.385C14.4184 172.722 7.21036 170.059 -0.00146484 167.396C8.18727 143.889 12.8568 124.494 15.6216 110.942C18.0771 98.9211 18.4392 96.8391 20.4459 87.1755C24.214 69.0328 30.645 51.999 41.8852 37.0587C56.2485 17.9767 75.2851 6.45368 98.7273 2.10471C108.644 0.264034 118.628 -0.467709 128.687 0.305525C150.078 1.94629 168.997 9.74275 185.382 23.5516C200.504 36.3005 211.167 52.1009 216.93 71.0696C222.377 88.9898 223.116 107.095 218.484 125.317Z" fill="white"/>
<path d="M293.154 9.29395H324.001C336.897 9.29395 343.09 14.8537 343.09 23.2423C343.09 29.5489 339.262 34.2901 332.284 36.4326C336.606 38.1488 340.284 42.1922 340.284 47.7633C340.231 61.5193 327.376 65.8004 315.005 65.8004H281.186L293.158 9.29395H293.154ZM300.796 54.1491H312.911C318.724 54.1491 321.975 52.414 321.975 47.8274C321.975 44.7345 319.791 42.6335 314.797 42.6335H303.221L300.796 54.1453V54.1491ZM317.362 31.0614C321.82 31.0614 325.068 29.745 325.068 25.6978C325.068 22.4087 322.737 21.032 318.909 21.032H307.827L305.665 31.0652H317.362V31.0614Z" fill="white"/>
<path d="M395.798 43.1654H367.139L365.072 53.1269H398.034L393.395 65.8004H345.451L357.423 9.29395H404.556L401.84 21.9674H371.661L369.934 30.4919H398.593L395.798 43.1654Z" fill="white"/>
<path d="M420.774 48.3969C421.509 52.6327 424.836 55.4956 431.595 55.4956C436.676 55.4956 440.489 54.1414 440.489 50.1395C440.489 47.1182 438.705 45.4058 430.064 43.1879C415.022 39.3331 409.96 34.7804 409.96 26.8821C409.96 15.5439 419.812 8.00391 435.563 8.00391C454.487 8.00391 460.997 16.864 461.397 25.2979H444.902C444.453 22.5746 442.598 19.4402 435.499 19.4402C431.086 19.4402 428.427 21.5072 428.427 24.4304C428.427 27.5384 431.014 28.587 438.747 30.4956C454.871 34.5089 459.107 40.0007 459.107 47.9971C459.107 59.2108 449.127 67.0865 430.792 67.0865C414.112 67.0865 404.969 60.5235 403.947 48.3931H420.777L420.774 48.3969Z" fill="white"/>
<path d="M483.686 21.9674H465.815L468.531 9.29395H521.612L518.896 21.9674H501.052L491.848 65.8004H474.43L483.686 21.9674Z" fill="white"/>
<path d="M299.052 105.642H281.181L283.897 92.969H336.978L334.263 105.642H316.418L307.215 149.475H289.796L299.052 105.642Z" fill="white"/>
<path d="M354.063 128.579L349.677 149.475H332.586L344.528 92.969H374.564C386.486 92.969 394.147 98.8003 394.147 108.155C394.147 116.396 388.931 121.017 382.232 123.182C384.45 124.385 388.95 127.595 386.886 137.379C385.694 142.629 385.208 146.771 385.577 149.479H368.687C368.2 147.103 368.261 143.629 369.807 136.855C371.041 131.125 370.354 128.583 364.81 128.583H354.063V128.579ZM356.504 117.007H367.235C372.093 117.007 375.982 115.117 375.982 110.316C375.982 106.88 373.696 104.986 369.389 104.986H359.008L356.504 117.003V117.007Z" fill="white"/>
<path d="M415.377 138.665L409.169 149.475H390.928L423.287 92.969H446.065L455.879 149.475H438.287L436.677 138.665H415.377ZM434.998 126.022C433.712 117.094 432.758 109.279 432.437 104.601H432.188C430.133 109.429 426.342 117.124 421.718 126.022H434.998Z" fill="white"/>
<path d="M490.92 92.969L478.948 149.475H461.53L473.502 92.969H490.92Z" fill="white"/>
<path d="M491.66 149.475L503.632 92.969H524.109C531.928 113.492 534.372 121.722 536.296 129.085H536.568C537.039 123.913 539.31 112.828 541.29 103.481L543.546 92.969H559.35L547.378 149.475H528.028C525.471 141.343 517.369 116.958 515.596 109.656H515.351C514.529 116.453 512.462 125.773 510.376 135.731L507.49 149.475H491.66Z" fill="white"/>
<path d="M589.498 92.969L577.526 149.475H560.107L572.079 92.969H589.498Z" fill="white"/>
<path d="M590.232 149.475L602.204 92.969H622.682C630.501 113.492 632.945 121.722 634.869 129.085H635.144C635.616 123.913 637.886 112.828 639.867 103.481L642.122 92.969H657.926L645.954 149.475H626.605C624.047 141.343 615.945 116.958 614.173 109.656H613.927C613.105 116.453 611.038 125.773 608.952 135.731L606.067 149.475H590.236H590.232Z" fill="white"/>
<path d="M714.868 149.476H703.02C702.828 148.242 702.798 146.654 702.956 144.531C699.444 148.121 694.828 150.766 685.141 150.766C668.198 150.766 661.126 139.039 661.126 126.026C661.126 108.472 673.441 91.6792 696.257 91.6792C713.37 91.6792 722.038 99.8792 723.007 110.09H705.461C705.114 107.359 703.039 103.617 695.533 103.617C685.571 103.617 679.702 114.642 679.702 125.287C679.702 133.819 683.037 138.522 690.313 138.522C699.478 138.522 701.553 132.272 702.379 129.217L702.458 128.975H690.924L694.228 116.623H721.785L714.871 149.476H714.868Z" fill="white"/>
<path d="M283.976 232.966L281.181 176.459H298.49C298.332 188.918 298.735 206.242 297.721 217.064H297.887C302.345 205.575 309.776 189.054 315.558 176.459H331.23C331.562 188.552 332.396 205.767 332.147 216.607H332.365C336.424 204.598 343.628 187.722 348.377 176.459H365.72L338.099 232.966H319.632C319.058 219.538 318.632 204.379 318.79 195.613H318.625C315.252 204.76 307.946 220.87 302.334 232.966H283.972H283.976Z" fill="white"/>
<path d="M410.493 210.327H381.834L379.767 220.289H412.73L408.09 232.962H360.146L372.118 176.456H419.251L416.536 189.129H386.357L384.629 197.654H413.288L410.493 210.327Z" fill="white"/>
<path d="M468.496 210.327H439.838L437.771 220.289H470.733L466.094 232.962H418.149L430.121 176.456H477.255L474.539 189.129H444.36L442.633 197.654H471.291L468.493 210.327H468.496Z" fill="white"/>
<path d="M488.181 176.456H505.415L500.545 199.645C508.568 192.547 516.244 185.618 526.575 176.456H547.566L518.613 200.766L536.85 232.962H517.349L505.249 210.12L497.049 215.993L493.5 232.966H476.164L488.189 176.46L488.181 176.456Z" fill="white"/>
</g>
<defs>
<clipPath id="clip0_763_178">
<rect width="723" height="233.607" fill="white"/>
</clipPath>
</defs>
</svg>
