<svg width="83" height="98" viewBox="0 0 83 98" fill="none" xmlns="http://www.w3.org/2000/svg">
<path d="M44.1101 46.2963L44.1352 46.7311L44.5694 46.7658L76.7169 49.3322L44.5694 51.8985L44.1352 51.9332L44.1101 52.3681L42 88.8349L39.8899 52.3681L39.8648 51.9332L39.4306 51.8985L7.28313 49.3322L39.4306 46.7658L39.8648 46.7311L39.8899 46.2963L42 9.82946L44.1101 46.2963Z" fill="white" stroke="white"/>
<path d="M82.5 48.7456C82.5 75.4694 64.0712 96.9913 41.5 96.9913C18.9288 96.9913 0.5 75.4694 0.5 48.7456C0.5 22.0218 18.9288 0.5 41.5 0.5C64.0712 0.5 82.5 22.0218 82.5 48.7456Z" stroke="white"/>
</svg>
