<svg width="24" height="24" viewBox="0 0 24 24" fill="none" xmlns="http://www.w3.org/2000/svg">
<path d="M11.9188 8.65188C11.0018 8.65188 10.1222 9.01873 9.47377 9.67172C8.82531 10.3247 8.461 11.2104 8.461 12.1338C8.461 13.0573 8.82531 13.9429 9.47377 14.5959C10.1222 15.2489 11.0018 15.6158 11.9188 15.6158C12.8359 15.6158 13.7154 15.2489 14.3639 14.5959C15.0123 13.9429 15.3766 13.0573 15.3766 12.1338C15.3766 11.2104 15.0123 10.3247 14.3639 9.67172C13.7154 9.01873 12.8359 8.65188 11.9188 8.65188ZM11.9188 6.33059C13.4473 6.33059 14.9131 6.942 15.9939 8.03032C17.0747 9.11863 17.6819 10.5947 17.6819 12.1338C17.6819 13.6729 17.0747 15.149 15.9939 16.2373C14.9131 17.3257 13.4473 17.9371 11.9188 17.9371C10.3904 17.9371 8.92452 17.3257 7.84374 16.2373C6.76296 15.149 6.15579 13.6729 6.15579 12.1338C6.15579 10.5947 6.76296 9.11863 7.84374 8.03032C8.92452 6.942 10.3904 6.33059 11.9188 6.33059ZM19.4108 6.04042C19.4108 6.4252 19.259 6.79422 18.9888 7.0663C18.7186 7.33838 18.3521 7.49123 17.97 7.49123C17.5879 7.49123 17.2214 7.33838 16.9512 7.0663C16.681 6.79422 16.5292 6.4252 16.5292 6.04042C16.5292 5.65564 16.681 5.28663 16.9512 5.01455C17.2214 4.74247 17.5879 4.58961 17.97 4.58961C18.3521 4.58961 18.7186 4.74247 18.9888 5.01455C19.259 5.28663 19.4108 5.65564 19.4108 6.04042ZM11.9188 2.84864C9.06727 2.84864 8.60162 2.85677 7.27497 2.91596C6.37133 2.9589 5.76505 3.08077 5.20258 3.30129C4.73188 3.47532 4.30633 3.75425 3.95777 4.11723C3.59701 4.46821 3.31963 4.8967 3.14633 5.37073C2.92734 5.93945 2.80631 6.54879 2.76482 7.45758C2.70488 8.73893 2.69682 9.18694 2.69682 12.1338C2.69682 15.0064 2.70488 15.4742 2.76367 16.8101C2.80631 17.7189 2.92734 18.3305 3.14518 18.8958C3.34112 19.4006 3.57164 19.7639 3.95431 20.1493C4.34274 20.5392 4.7035 20.7725 5.19912 20.9652C5.76851 21.1869 6.37478 21.3099 7.27382 21.3517C8.5463 21.4121 8.9912 21.419 11.9177 21.419C14.7704 21.419 15.2349 21.4109 16.5615 21.3517C17.4629 21.3088 18.0691 21.1869 18.6328 20.9675C19.103 20.7926 19.5284 20.5138 19.8776 20.1516C20.266 19.7616 20.4977 19.3983 20.689 18.8981C20.908 18.327 21.0302 17.7165 21.0717 16.8089C21.1316 15.5287 21.1385 15.0796 21.1385 12.1338C21.1385 9.26238 21.1305 8.79348 21.0717 7.45758C21.029 6.54995 20.9069 5.93713 20.689 5.37073C20.5153 4.8972 20.2384 4.46888 19.8787 4.11723C19.5303 3.75377 19.1048 3.47442 18.6339 3.30013C18.0691 3.07961 17.4629 2.95774 16.5615 2.91596C15.2902 2.8556 14.8453 2.84864 11.9177 2.84864M11.9177 0.527344C15.0493 0.527344 15.44 0.53895 16.6699 0.596983C17.8962 0.655015 18.733 0.848843 19.4672 1.13668C20.228 1.43149 20.8688 1.83075 21.5097 2.47491C22.0958 3.05511 22.5493 3.75695 22.8386 4.53158C23.1233 5.27091 23.317 6.11354 23.3746 7.34963C23.4288 8.58689 23.4437 8.98035 23.4437 12.1338C23.4437 15.2873 23.4322 15.6808 23.3746 16.918C23.317 18.1541 23.1233 18.9956 22.8386 19.7361C22.5501 20.5111 22.0965 21.2131 21.5097 21.7927C20.9333 22.3827 20.2364 22.8394 19.4672 23.131C18.733 23.4177 17.8962 23.6126 16.6699 23.6707C15.44 23.7252 15.0493 23.7403 11.9177 23.7403C8.78604 23.7403 8.3953 23.7287 7.16547 23.6707C5.9391 23.6126 5.10346 23.4177 4.36809 23.131C3.59853 22.8402 2.90143 22.3834 2.32568 21.7927C1.7395 21.2126 1.28598 20.5108 0.99672 19.7361C0.710874 18.9967 0.518388 18.1541 0.460758 16.918C0.405433 15.6808 0.391602 15.2873 0.391602 12.1338C0.391602 8.98035 0.403128 8.58689 0.460758 7.34963C0.518388 6.11354 0.710874 5.27207 0.99672 4.53158C1.28514 3.75648 1.73877 3.05445 2.32568 2.47491C2.9016 1.88441 3.59865 1.42769 4.36809 1.13668C5.10231 0.848843 5.93795 0.655015 7.16547 0.596983C8.39646 0.542432 8.78719 0.527344 11.9188 0.527344" fill="black"/>
</svg>
