<svg width="97" height="55" viewBox="0 0 97 55" fill="none" xmlns="http://www.w3.org/2000/svg">
<path d="M53.046 4.28858L34.4834 25.6052C33.6638 26.5636 33.5511 27.8567 34.1966 28.9147L49.993 52.1142C51.6733 54.8811 48.0647 55.8274 45.0319 54.2088L1.68572 29.9274C-0.640141 28.6886 -0.537674 25.6865 1.85991 24.5653L49.9931 0.447802C53.2924 -1.09845 55.2899 1.6482 53.046 4.28858Z" fill="#F7F7F7"/>
<path d="M96.046 4.28858L77.4834 25.6052C76.6638 26.5636 76.5511 27.8567 77.1966 28.9147L92.993 52.1142C94.6733 54.8811 91.0647 55.8274 88.0319 54.2088L44.6857 29.9274C42.3599 28.6886 42.4623 25.6865 44.8599 24.5653L92.9931 0.447802C96.2924 -1.09845 98.2899 1.6482 96.046 4.28858Z" fill="#F7F7F7"/>
</svg>
