<svg width="47" height="48" viewBox="0 0 47 48" fill="none" xmlns="http://www.w3.org/2000/svg">
<path d="M23.3923 27.9912C21.2016 27.9912 19.3031 26.2387 19.3031 23.902C19.3031 21.7114 21.0556 19.8128 23.3923 19.8128C25.5829 19.8128 27.4815 21.5653 27.4815 23.902C27.4815 26.0927 25.5829 27.9912 23.3923 27.9912Z" fill="#F7F7F7"/>
<path fill-rule="evenodd" clip-rule="evenodd" d="M28.3577 13.9711H18.4268C17.2585 14.1172 16.6743 14.2632 16.2362 14.4092C15.652 14.5553 15.2139 14.8474 14.7757 15.2855C14.429 15.6322 14.2652 15.9789 14.0673 16.3979C14.0151 16.5083 13.9604 16.6241 13.8995 16.7459C13.8769 16.8137 13.8508 16.885 13.8228 16.9614C13.6701 17.3788 13.4613 17.949 13.4613 18.9366V28.8675C13.6074 30.0358 13.7534 30.62 13.8995 31.0581C14.0455 31.6423 14.3376 32.0804 14.7757 32.5186C15.1224 32.8653 15.4691 33.0291 15.8882 33.227C15.9987 33.2793 16.1142 33.3339 16.2362 33.3948C16.3039 33.4174 16.3752 33.4435 16.4516 33.4715C16.869 33.6242 17.4392 33.833 18.4268 33.833H28.3577C29.5261 33.6869 30.1102 33.5409 30.5484 33.3948C31.1325 33.2488 31.5707 32.9567 32.0088 32.5186C32.3555 32.1719 32.5193 31.8252 32.7173 31.4062C32.7695 31.2957 32.8241 31.18 32.8851 31.0581C32.9077 30.9904 32.9337 30.9191 32.9617 30.8427C33.1145 30.4253 33.3232 29.8551 33.3232 28.8675V18.9366C33.1772 17.7682 33.0311 17.1841 32.8851 16.7459C32.739 16.1618 32.4469 15.7236 32.0088 15.2855C31.6621 14.9388 31.3154 14.775 30.8964 14.577C30.786 14.5249 30.6701 14.4701 30.5484 14.4092C30.4806 14.3866 30.4093 14.3606 30.3329 14.3326C29.9155 14.1798 29.3453 13.9711 28.3577 13.9711ZM23.3923 17.6222C19.8872 17.6222 17.1124 20.397 17.1124 23.902C17.1124 27.4071 19.8872 30.1819 23.3923 30.1819C26.8973 30.1819 29.6721 27.4071 29.6721 23.902C29.6721 20.397 26.8973 17.6222 23.3923 17.6222ZM31.2786 17.4761C31.2786 18.2827 30.6247 18.9366 29.8182 18.9366C29.0116 18.9366 28.3577 18.2827 28.3577 17.4761C28.3577 16.6696 29.0116 16.0157 29.8182 16.0157C30.6247 16.0157 31.2786 16.6696 31.2786 17.4761Z" fill="#F7F7F7"/>
<path fill-rule="evenodd" clip-rule="evenodd" d="M0.0253906 7.83731C0.0253906 3.80444 3.29467 0.535156 7.32754 0.535156H39.457C43.4899 0.535156 46.7592 3.80444 46.7592 7.83731V39.9668C46.7592 43.9996 43.4899 47.2689 39.457 47.2689H7.32754C3.29467 47.2689 0.0253906 43.9996 0.0253906 39.9668V7.83731ZM18.4268 11.7805H28.3577C29.6721 11.9265 30.5484 12.0726 31.2786 12.3646C32.1549 12.8028 32.739 13.0949 33.4692 13.8251C34.1995 14.5553 34.6376 15.2855 34.9297 16.0157C35.2218 16.7459 35.5138 17.6222 35.5138 18.9366V28.8675C35.3678 30.1819 35.2218 31.0581 34.9297 31.7884C34.4915 32.6646 34.1995 33.2488 33.4692 33.979C32.739 34.7092 32.0088 35.1473 31.2786 35.4394C30.5484 35.7315 29.6721 36.0236 28.3577 36.0236H18.4268C17.1124 35.8776 16.2362 35.7315 15.5059 35.4394C14.6297 35.0013 14.0455 34.7092 13.3153 33.979C12.5851 33.2488 12.147 32.5186 11.8549 31.7884C11.5628 31.0581 11.2707 30.1819 11.2707 28.8675V18.9366C11.4167 17.6222 11.5628 16.7459 11.8549 16.0157C12.293 15.1395 12.5851 14.5553 13.3153 13.8251C14.0455 13.0949 14.7757 12.6567 15.5059 12.3646C16.2362 12.0726 17.1124 11.7805 18.4268 11.7805Z" fill="#F7F7F7"/>
</svg>
