<svg width="48" height="48" viewBox="0 0 48 48" fill="none" xmlns="http://www.w3.org/2000/svg">
<path fill-rule="evenodd" clip-rule="evenodd" d="M0.717773 7.83731C0.717773 3.80444 3.98706 0.535156 8.01992 0.535156H40.1494C44.1822 0.535156 47.4515 3.80444 47.4515 7.83731V39.9668C47.4515 43.9996 44.1822 47.2689 40.1494 47.2689H8.01992C3.98706 47.2689 0.717773 43.9996 0.717773 39.9668V7.83731ZM12.6933 19.9589V35.5855H17.6588V19.9589H12.6933ZM12.4012 14.9934C12.4012 16.5999 13.5696 17.7682 15.176 17.7682C16.7825 17.7682 17.9509 16.5999 17.9509 14.9934C17.9509 13.3869 16.7825 12.2186 15.176 12.2186C13.7156 12.2186 12.4012 13.3869 12.4012 14.9934ZM30.8026 35.5855H35.476V25.9466C35.476 21.1272 32.5551 19.5207 29.7803 19.5207C27.2976 19.5207 25.5451 21.1272 25.107 22.1495V19.9589H20.4336V35.5855H25.399V27.261C25.399 25.0704 26.8595 23.902 28.3199 23.902C29.7803 23.902 30.8026 24.6323 30.8026 27.115V35.5855Z" fill="#F7F7F7"/>
</svg>
