<svg width="48" height="48" viewBox="0 0 48 48" fill="none" xmlns="http://www.w3.org/2000/svg">
<path fill-rule="evenodd" clip-rule="evenodd" d="M7.71328 0.535156H39.8427C43.8756 0.535156 47.1449 3.80444 47.1449 7.83731V39.9668C47.1449 43.9996 43.8756 47.2689 39.8427 47.2689H7.71328C3.68042 47.2689 0.411133 43.9996 0.411133 39.9668V7.83731C0.411133 3.80444 3.68042 0.535156 7.71328 0.535156ZM24.7884 18.0711C22.6956 18.9416 18.513 20.7432 12.2405 23.476C11.2219 23.8811 10.6884 24.2773 10.6398 24.6648C10.5577 25.3196 11.3777 25.5774 12.4943 25.9285C12.6462 25.9763 12.8036 26.0258 12.965 26.0782C14.0636 26.4353 15.5414 26.8531 16.3096 26.8697C17.0065 26.8848 17.7843 26.5975 18.643 26.0078C24.5036 22.0518 27.5288 20.0522 27.7188 20.0091C27.8527 19.9787 28.0384 19.9404 28.1642 20.0523C28.29 20.1641 28.2777 20.3758 28.2644 20.4327C28.1831 20.779 24.9643 23.7715 23.2986 25.3201C22.7793 25.8029 22.4109 26.1453 22.3356 26.2235C22.167 26.3987 21.995 26.5644 21.8298 26.7237C20.8092 27.7076 20.0438 28.4454 21.8722 29.6503C22.7508 30.2293 23.4539 30.7081 24.1553 31.1858C24.9214 31.7074 25.6854 32.2278 26.6739 32.8758C26.9258 33.0409 27.1663 33.2123 27.4006 33.3794C28.2921 34.0149 29.093 34.5859 30.0825 34.4948C30.6574 34.4419 31.2513 33.9013 31.5529 32.2889C32.2657 28.4783 33.6668 20.2219 33.9906 16.8196C34.019 16.5215 33.9833 16.1401 33.9547 15.9726C33.926 15.8051 33.8661 15.5665 33.6484 15.3899C33.3906 15.1807 32.9927 15.1366 32.8147 15.1396C32.0054 15.154 30.7638 15.5857 24.7884 18.0711Z" fill="#F7F7F7"/>
</svg>
